<svg width="60" xmlns="http://www.w3.org/2000/svg" height="56" id="screenshot-5aac0447-3c1f-803f-8006-73f878aebdfb" viewBox="102 170 60 56" style="-webkit-print-color-adjust::exact" xmlns:xlink="http://www.w3.org/1999/xlink" fill="none" version="1.1"><g id="shape-5aac0447-3c1f-803f-8006-73f878aebdfb" style="fill:#000000" version="1.0" width="1181.333" height="1098.667" rx="0" ry="0"><defs></defs><g id="shape-5aac0447-3c1f-803f-8006-73f878aee1bf" style="display:none"><defs></defs><g class="fills" id="fills-5aac0447-3c1f-803f-8006-73f878aee1bf"><rect rx="0" ry="0" x="102" y="170" transform="matrix(1.000000, 0.000000, 0.000000, 1.000000, 0.000000, 0.000000)" width="60" height="56" fill="none" style="fill:none"></rect></g></g><g id="shape-5aac0447-3c1f-803f-8006-73f878af30d3" style="fill:#000000" rx="0" ry="0"><defs></defs><g id="shape-5aac0447-3c1f-803f-8006-73f931bc51c8"><defs></defs><g class="fills" id="fills-5aac0447-3c1f-803f-8006-73f931bc51c8"><path d="M121,182L145,182L145,197L117,196L121,182" style="fill:#2aa9c2;fill-opacity:1"></path></g></g><g id="shape-5aac0447-3c1f-803f-8006-73f8f1a47676"><defs></defs><g class="fills" id="fills-5aac0447-3c1f-803f-8006-73f8f1a47676"><path d="M116.22856903076172,196L153,195L153,226L114,225L116.22856903076172,196" style="fill:#bbaa88;fill-opacity:1"></path></g></g><g id="shape-5aac0447-3c1f-803f-8006-73f9620a5e77"><defs></defs><g class="fills" id="fills-5aac0447-3c1f-803f-8006-73f9620a5e77"><path d="M105,195L115.5,183L132,174.5L150.5,184L159,194.5L161.5,192.5L150.5,180L132,170.5L113,179.5L102,192.5L105,195" style="fill:#aa9b7d;fill-opacity:1"></path></g><g id="strokes-5aac0447-3c1f-803f-8006-73f9d3e386a6-5aac0447-3c1f-803f-8006-73f9620a5e77" class="strokes"><g class="inner-stroke-shape"><defs><clipPath id="inner-stroke-render-6910-5aac0447-3c1f-803f-8006-73f9620a5e77-0"><use href="#stroke-shape-render-6910-5aac0447-3c1f-803f-8006-73f9620a5e77-0"></use></clipPath><path d="M105,195L115.5,183L132,174.5L150.5,184L159,194.5L161.5,192.5L150.5,180L132,170.5L113,179.5L102,192.5L105,195" style="fill:none;fill-opacity:none;stroke-width:4;stroke:#aa9b7d;stroke-opacity:1" id="stroke-shape-render-6910-5aac0447-3c1f-803f-8006-73f9620a5e77-0"></path></defs><use href="#stroke-shape-render-6910-5aac0447-3c1f-803f-8006-73f9620a5e77-0" clip-path="url(&#x27;#inner-stroke-render-6910-5aac0447-3c1f-803f-8006-73f9620a5e77-0&#x27;)"></use></g></g></g><g id="shape-5aac0447-3c1f-803f-8006-73f878b05c53"><defs></defs><g class="fills" id="fills-5aac0447-3c1f-803f-8006-73f878b05c53"><path d="M131.49209594726562,170.2786407470703C131.1941375732422,170.4281463623047,130.8284454345703,170.5980682373047,130.67266845703125,170.6524200439453C130.52371215820312,170.6999969482422,129.75169372558594,171.06698608398438,128.95936584472656,171.46116638183594C128.173828125,171.8553466796875,127.49661254882812,172.1747589111328,127.46275329589844,172.1747589111328C127.37472534179688,172.1747589111328,124.87583923339844,173.39126586914062,119.43792724609375,176.08251953125C118.02256774902344,176.78253173828125,116.08578491210938,177.73397827148438,115.1376953125,178.2029266357422C113.68849182128906,178.91650390625,113.3566665649414,179.10679626464844,113.05868530273438,179.39903259277344C112.8623046875,179.5893096923828,112.69978332519531,179.7728271484375,112.69978332519531,179.80679321289062C112.69978332519531,179.874755859375,112.53047943115234,180.10581970214844,112.12415313720703,180.5951385498047C111.97516632080078,180.7718505859375,111.7652359008789,181.0504913330078,111.65010833740234,181.21359252929688C111.54176330566406,181.3699188232422,111.3386001586914,181.62814331054688,111.20316314697266,181.7844696044922C111.0744857788086,181.93397521972656,110.89164733886719,182.17184448242188,110.8036117553711,182.30096435546875C110.64108276367188,182.53883361816406,110.4853286743164,182.73593139648438,109.78781127929688,183.55145263671875C109.58464813232422,183.79612731933594,109.2799072265625,184.16310119628906,109.11061096191406,184.38058471679688C108.9413070678711,184.5912628173828,108.59593200683594,185.00582885742188,108.33183288574219,185.29806518554688C108.07449340820312,185.5902862548828,107.6139907836914,186.10679626464844,107.31602478027344,186.45339965820312C107.01806640625,186.793212890625,106.577880859375,187.28932189941406,106.3340835571289,187.56117248535156C106.09029388427734,187.8262176513672,105.62979888916016,188.35630798339844,105.30474090576172,188.72329711914062C104.38374328613281,189.78350830078125,103.5237045288086,190.73495483398438,102.724609375,191.5640869140625C102.32505798339844,191.98544311523438,102,192.38641357421875,102,192.44757080078125C102,192.51553344726562,102.0677261352539,192.5902862548828,102.15575408935547,192.624267578125C102.23702239990234,192.6582489013672,102.4130859375,192.80096435546875,102.54176330566406,192.9368896484375C102.6704330444336,193.07962036132812,103.21218872070312,193.6029052734375,103.74717712402344,194.09902954101562C104.52596282958984,194.8330078125,104.74942779541016,195.0097198486328,104.90518951416016,195.0097198486328C105.14898681640625,195.0097198486328,105.33182525634766,194.8330078125,106.06320190429688,193.8815460205078C106.733642578125,193.01165771484375,108.39955139160156,191.2786407470703,108.55530548095703,191.2854461669922C108.61624908447266,191.2854461669922,108.71784210205078,191.27183532714844,108.7787857055664,191.24465942382812C108.8668212890625,191.20388793945312,108.90068054199219,191.2990264892578,108.97517395019531,191.82913208007812C109.0835189819336,192.6038818359375,109.0970687866211,202.30873107910156,108.98871612548828,203.81068420410156C108.84649658203125,205.83590698242188,108.91423034667969,221.20193481445312,109.0835189819336,224.6883544921875L109.11737823486328,225.4495086669922L109.33407592773438,225.48348999023438C109.45598602294922,225.50389099121094,109.85552215576172,225.537841796875,110.22799682617188,225.55824279785156C110.59368896484375,225.57862854003906,110.91873168945312,225.63299560546875,110.94583129882812,225.6669921875C110.99322509765625,225.74853515625,111.41986083984375,225.7213592529297,111.853271484375,225.60580444335938C112.02257537841797,225.55824279785156,113.49887084960938,225.52427673339844,115.91647338867188,225.51748657226562C118.9774169921875,225.5106658935547,119.75621032714844,225.4902801513672,119.94583129882812,225.41552734375C120.284423828125,225.2796173095703,131.3701934814453,225.31358337402344,131.91197204589844,225.4495086669922C132.20993041992188,225.52427673339844,132.36569213867188,225.52427673339844,132.82618713378906,225.4495086669922C133.64559936523438,225.3203887939453,143.38372802734375,225.27281188964844,143.91873168945312,225.40194702148438C144.20993041992188,225.46990966796875,145.36795043945312,225.4902801513672,149.0316162109375,225.4902801513672C153.4808349609375,225.4902801513672,153.79232788085938,225.48348999023438,153.9616241455078,225.36795043945312C154.06321716308594,225.29998779296875,154.13092041015625,225.21844482421875,154.11061096191406,225.18447875976562C154.08351135253906,225.14369201660156,153.8668212890625,225.1096954345703,153.61624145507812,225.1096954345703C153.2370147705078,225.1029052734375,153.20315551757812,225.09613037109375,153.4130859375,225.0553436279297C153.9142303466797,224.95339965820312,154.40179443359375,224.48446655273438,154.62527465820312,223.89999389648438C154.7946014404297,223.45144653320312,154.78103637695312,223.07086181640625,154.55755615234375,221.03883361816406C154.3273162841797,218.95242309570312,154.21218872070312,217.1038818359375,154.16477966308594,214.68447875976562C154.1241455078125,212.4077606201172,154.1512451171875,211.95242309570312,154.41534423828125,210.64077758789062C154.45599365234375,210.4708709716797,154.49661254882812,210.2126007080078,154.51014709472656,210.0631103515625C154.52371215820312,209.91360473632812,154.58465576171875,209.47183227539062,154.64559936523438,209.07766723632812C154.69976806640625,208.68350219726562,154.7607421875,208.1533966064453,154.78103637695312,207.8951416015625C154.7946014404297,207.64369201660156,154.82843017578125,207.41262817382812,154.8487548828125,207.39222717285156C154.86907958984375,207.37184143066406,154.88938903808594,209.46505737304688,154.88938903808594,212.04757690429688C154.88938903808594,214.62330627441406,154.9097137451172,218.61941528320312,154.93678283691406,220.91650390625L154.9774169921875,225.1029052734375L154.77426147460938,225.14369201660156C154.6117401123047,225.18447875976562,154.57110595703125,225.21844482421875,154.59820556640625,225.32716369628906C154.62527465820312,225.42913818359375,154.6929931640625,225.45631408691406,154.88938903808594,225.45631408691406C155.11962890625,225.45631408691406,155.1602783203125,225.4359130859375,155.2212371826172,225.2320556640625C155.275390625,225.08251953125,155.29571533203125,221.27670288085938,155.28216552734375,212.5097198486328C155.275390625,200.58251953125,155.32278442382812,192.7805633544922,155.404052734375,191.6796112060547L155.44468688964844,191.16990661621094L155.79684448242188,191.54368591308594C155.9864501953125,191.75437927246094,156.5823974609375,192.42718505859375,157.1173858642578,193.03883361816406C158.34310913085938,194.44564819335938,158.88487243652344,195.0097198486328,159.0203094482422,195.0097198486328C159.1151123046875,195.0097198486328,159.93453979492188,194.3436737060547,161.37698364257812,193.0931854248047C161.90518188476562,192.6378631591797,162,192.5291290283203,161.95938110351562,192.4068145751953C161.91197204589844,192.23687744140625,161.49887084960938,191.72718811035156,160.88938903808594,191.06796264648438C160.6591339111328,190.8233184814453,160.09030151367188,190.19805908203125,159.62303161621094,189.6747589111328C159.14898681640625,189.15145874023438,158.29571533203125,188.206787109375,157.7268829345703,187.5747528076172C157.1512451171875,186.9427032470703,156.53500366210938,186.2563018798828,156.34536743164062,186.04563903808594C156.16253662109375,185.83494567871094,155.5666046142578,185.17572021484375,155.02484130859375,184.58445739746094C154.4830780029297,183.9864044189453,153.89389038085938,183.333984375,153.71107482910156,183.12330627441406C153.52821350097656,182.91262817382812,152.93228149414062,182.26019287109375,152.3905029296875,181.66893005371094C151.8487548828125,181.0776824951172,151.2324981689453,180.39804077148438,151.0293426513672,180.16018676757812C150.59593200683594,179.64369201660156,150.5485382080078,179.60971069335938,149.7291259765625,179.1747589111328C149.38375854492188,178.9912567138672,148.6591339111328,178.6106719970703,148.1173858642578,178.3252410888672C147.57562255859375,178.039794921875,146.66139221191406,177.5504913330078,146.0857696533203,177.24465942382812C145.51014709472656,176.93882751464844,144.67044067382812,176.49029541015625,144.22348022460938,176.25921630859375C143.7765350341797,176.02134704589844,143.2279815673828,175.7291259765625,143.0045166015625,175.60679626464844C142.7810516357422,175.48446655273438,142.0361328125,175.0902862548828,141.34536743164062,174.7368927001953C140.65463256835938,174.3834991455078,139.39503479003906,173.72427368164062,138.5349884033203,173.26893615722656C137.6817169189453,172.81358337402344,136.1241455078125,172.01844787597656,135.0812530517578,171.48834228515625C134.0383758544922,170.96505737304688,132.97515869140625,170.41455078125,132.7110595703125,170.2718505859375C132.4537353515625,170.122314453125,132.1896209716797,170,132.13543701171875,170C132.07449340820312,170,131.79006958007812,170.122314453125,131.49209594726562,170.2786407470703ZM134.50564575195312,171.57669067382812C135.6027069091797,172.14077758789062,137.81716918945312,173.28932189941406,139.41534423828125,174.1320343017578C141.0203094482422,174.96795654296875,143.25506591796875,176.15048217773438,144.3927764892578,176.7417449951172C145.5304718017578,177.33981323242188,147.33860778808594,178.291259765625,148.4085693359375,178.8553466796875L150.3656768798828,179.8883514404297L150.94808959960938,180.56796264648438C151.2731170654297,180.94174194335938,153.2979736328125,183.20486450195312,155.45823669433594,185.5970916748047C157.61851501464844,187.9893341064453,159.79910278320312,190.40194702148438,160.3002166748047,190.9660186767578C160.80136108398438,191.52330017089844,161.29571533203125,192.08058166503906,161.40406799316406,192.1961212158203L161.6004638671875,192.4068145751953L160.29345703125,193.51455688476562L158.99322509765625,194.61553955078125L158.81716918945312,194.41845703125C158.24154663085938,193.7388458251953,155.02484130859375,190.08251953125,153.2979736328125,188.1456298828125C152.1805877685547,186.8951416015625,150.8735809326172,185.4272003173828,150.3927764892578,184.8834991455078C149.91873168945312,184.33981323242188,149.34312438964844,183.6873779296875,149.11962890625,183.4359130859375C148.8623046875,183.15048217773438,148.58465576171875,182.91262817382812,148.36793518066406,182.7970733642578C147.8329620361328,182.53204345703125,144.6027069091797,180.7786407470703,143.68170166015625,180.2621307373047C143.23477172851562,180.01068115234375,141.96839904785156,179.31747436523438,140.87132263183594,178.73301696777344C139.77426147460938,178.14175415039062,137.51919555664062,176.91844177246094,135.86004638671875,176.0145721435547C134.20089721679688,175.1106719970703,132.65689086914062,174.26795959472656,132.4198760986328,174.14564514160156L132,173.9281463623047L131.70880126953125,174.04368591308594C131.55303955078125,174.1048583984375,131.2550811767578,174.2611541748047,131.0519256591797,174.3834991455078C130.6862335205078,174.60096740722656,122.46501159667969,179.07962036132812,118.18510437011719,181.39028930664062C116.09931945800781,182.51165771484375,116.03837585449219,182.55242919921875,115.41534423828125,183.15048217773438C114.50790405273438,184.0271759033203,113.28217315673828,185.39320373535156,111.0880355834961,187.962158203125C110.0045166015625,189.23300170898438,109.09029388427734,190.24562072753906,108.98871612548828,190.293212890625C108.73815155029297,190.40194702148438,106.49662017822266,192.70582580566406,105.79232788085938,193.58251953125C105.08804321289062,194.45921325683594,105.0135498046875,194.5339813232422,104.85102081298828,194.5339813232422C104.78329467773438,194.5339813232422,104.23477172851562,194.05145263671875,103.58464813232422,193.41941833496094L102.440185546875,192.3048553466797L103.25282287597656,191.462158203125C106.11737823486328,188.4990234375,110.17381286621094,183.7417449951172,112.58465576171875,180.5203857421875C113.02482604980469,179.92913818359375,113.46501159667969,179.39222717285156,113.56658935546875,179.32427978515625C113.66817474365234,179.24951171875,114.69752502441406,178.73301696777344,115.8487548828125,178.16893005371094C117.00677490234375,177.6116485595703,119.89842224121094,176.19126892089844,122.28216552734375,175.01553344726562C127.22572326660156,172.5757293701172,127.8487548828125,172.27670288085938,130.27313232421875,171.16213989257812C132.02708435058594,170.3601837158203,132.0338592529297,170.3601837158203,132.2708740234375,170.455322265625C132.39955139160156,170.50970458984375,133.4085693359375,171.0126190185547,134.50564575195312,171.57669067382812ZM127.83522033691406,176.7281494140625C127.50338745117188,176.95242309570312,127.16477966308594,177.1359100341797,127.09706115722656,177.1359100341797C126.8939208984375,177.1359100341797,127.0225830078125,177.040771484375,127.70654296875,176.6669921875C128.5259552001953,176.21844482421875,128.56658935546875,176.2388458251953,127.83522033691406,176.7281494140625ZM147.1354522705078,182.60679626464844C148.2731475830078,183.21844482421875,148.53724670410156,183.3883514404297,148.79457092285156,183.6805877685547C148.96388244628906,183.87086486816406,149.51919555664062,184.49610900878906,150.0338592529297,185.07379150390625L150.96160888671875,186.11358642578125L150.96160888671875,186.8407745361328L150.96160888671875,187.56796264648438L150.72459411621094,187.29611206054688C150.49435424804688,187.03106689453125,150.35215759277344,186.793212890625,150.3115234375,186.58932495117188C150.27764892578125,186.41941833496094,149.9932098388672,185.9029083251953,149.93228149414062,185.9029083251953C149.90518188476562,185.9029083251953,149.8848876953125,185.8825225830078,149.89166259765625,185.84854125976562C149.9525909423828,185.67184448242188,148.59141540527344,184.21746826171875,148.45599365234375,184.3058319091797C148.4153594970703,184.3330078125,148.39503479003906,184.3194122314453,148.40179443359375,184.2854461669922C148.42213439941406,184.21746826171875,148.02935791015625,183.8640899658203,147.92776489257812,183.8640899658203C147.8871307373047,183.8640899658203,147.8465118408203,183.83689880371094,147.8329620361328,183.80972290039062C147.8058624267578,183.7417449951172,147.0609588623047,183.18446350097656,147,183.18446350097656C146.91197204589844,183.18446350097656,145.70654296875,182.18544006347656,145.3002166748047,181.7776641845703C145.08351135253906,181.56019592285156,145.17832946777344,181.5330047607422,145.50338745117188,181.7165069580078C145.65237426757812,181.8048553466797,146.39051818847656,182.20582580566406,147.1354522705078,182.60679626464844ZM117.35214233398438,184.55728149414062C117.33183288574219,184.6116485595703,117.31150817871094,184.5912628173828,117.31150817871094,184.51651000976562C117.30474853515625,184.44174194335938,117.32505798339844,184.40097045898438,117.34538269042969,184.4281463623047C117.36569213867188,184.44854736328125,117.37245178222656,184.50970458984375,117.35214233398438,184.55728149414062ZM122.83746337890625,184.7203826904297C122.81715393066406,184.74078369140625,122.75621032714844,184.74755859375,122.70880126953125,184.7271728515625C122.65463256835938,184.706787109375,122.67494201660156,184.68641662597656,122.74943542480469,184.68641662597656C122.82392883300781,184.67959594726562,122.86454772949219,184.6999969482422,122.83746337890625,184.7203826904297ZM141.79910278320312,184.8970947265625C141.77877807617188,184.95144653320312,141.75845336914062,184.93106079101562,141.75845336914062,184.85630798339844C141.75169372558594,184.78155517578125,141.77200317382812,184.74078369140625,141.7923126220703,184.76795959472656C141.81265258789062,184.78834533691406,141.8194122314453,184.84951782226562,141.79910278320312,184.8970947265625ZM126.06094360351562,184.86309814453125C125.972900390625,184.87669372558594,125.82391357421875,184.87669372558594,125.72235107421875,184.86309814453125C125.614013671875,184.84951782226562,125.6884765625,184.83592224121094,125.871337890625,184.83592224121094C126.06094360351562,184.83592224121094,126.1422119140625,184.84951782226562,126.06094360351562,184.86309814453125ZM130.0902862548828,184.9990234375C130.0225830078125,185.0126190185547,129.90066528320312,185.0126190185547,129.81939697265625,184.9990234375C129.73138427734375,184.9854278564453,129.78553771972656,184.97183227539062,129.93453979492188,184.97183227539062C130.08352661132812,184.96505737304688,130.15122985839844,184.97865295410156,130.0902862548828,184.9990234375ZM131.61398315429688,184.9990234375C131.5666046142578,185.0126190185547,131.47178649902344,185.0126190185547,131.41082763671875,184.9990234375C131.34310913085938,184.97865295410156,131.3837432861328,184.96505737304688,131.49209594726562,184.96505737304688C131.6072235107422,184.96505737304688,131.65463256835938,184.97865295410156,131.61398315429688,184.9990234375ZM132.25732421875,184.9990234375C132.1896209716797,185.0126190185547,132.06771850585938,185.0126190185547,131.9864501953125,184.9990234375C131.89842224121094,184.9854278564453,131.95257568359375,184.97183227539062,132.10157775878906,184.97183227539062C132.2505645751953,184.96505737304688,132.3182830810547,184.97865295410156,132.25732421875,184.9990234375ZM132.6298065185547,184.9990234375C132.5823974609375,185.0126190185547,132.50112915039062,185.0126190185547,132.4604949951172,184.9990234375C132.4130859375,184.97865295410156,132.44696044921875,184.96505737304688,132.54176330566406,184.96505737304688C132.63656616210938,184.96505737304688,132.67044067382812,184.97865295410156,132.6298065185547,184.9990234375ZM139.9435577392578,184.9990234375C139.89614868164062,185.0126190185547,139.8148956298828,185.0126190185547,139.77426147460938,184.9990234375C139.72686767578125,184.97865295410156,139.7607421875,184.96505737304688,139.85552978515625,184.96505737304688C139.95034790039062,184.96505737304688,139.9842071533203,184.97865295410156,139.9435577392578,184.9990234375ZM126.34536743164062,185.29806518554688C127.44244384765625,185.3524169921875,140.1670379638672,185.45437622070312,141.73138427734375,185.4272003173828C141.7923126220703,185.4272003173828,141.81265258789062,186.12718200683594,141.8194122314453,188.43106079101562C141.8194122314453,190.08932495117188,141.8397216796875,191.97183227539062,141.8668212890625,192.624267578125L141.90744018554688,193.8068084716797L140.35665893554688,193.7592315673828C138.73138427734375,193.71844482421875,135.58917236328125,193.67086791992188,129.76522827148438,193.61651611328125C127.8487548828125,193.59613037109375,125.22799682617188,193.56211853027344,123.94807434082031,193.54173278808594L121.62527465820312,193.4941864013672L121.64558410644531,189.4708709716797C121.67268371582031,185.2029266357422,121.66590881347656,185.33883666992188,121.9774169921875,185.2029266357422C122.08578491210938,185.15533447265625,123.92098999023438,185.19610595703125,126.34536743164062,185.29806518554688ZM113.7697525024414,185.6106719970703C113.72234344482422,185.71942138671875,113.66139221191406,185.83494567871094,113.62754821777344,185.8825225830078C113.59368896484375,185.9300994873047,113.59368896484375,186.00485229492188,113.62076568603516,186.04563903808594C113.64785766601562,186.0932159423828,113.64108276367188,186.10679626464844,113.59368896484375,186.07962036132812C113.55305480957031,186.05921936035156,113.49210357666016,186.13397216796875,113.45146179199219,186.26312255859375C113.41083526611328,186.38543701171875,113.22799682617188,186.63690185546875,113.03837585449219,186.8203887939453C112.85553741455078,186.99710083007812,112.72686767578125,187.18060302734375,112.74717712402344,187.2145538330078C112.76749420166016,187.25534057617188,112.75395202636719,187.2621307373047,112.71331787109375,187.23495483398438C112.6659164428711,187.20777893066406,112.63204956054688,187.2145538330078,112.63204956054688,187.24853515625C112.63204956054688,187.27574157714844,112.49661254882812,187.45242309570312,112.33409118652344,187.64271545410156C112.17155456542969,187.8262176513672,112.0496597290039,187.99610900878906,112.06997680664062,188.02330017089844C112.08352661132812,188.0572967529297,112.06997680664062,188.07766723632812,112.02935028076172,188.07766723632812C111.92776489257812,188.07766723632812,111.61624908447266,188.56698608398438,111.66365814208984,188.6485595703125C111.68397521972656,188.68931579589844,111.68397521972656,188.7029266357422,111.65010833740234,188.6757354736328C111.6230239868164,188.6485595703125,111.54176330566406,188.6961212158203,111.47404479980469,188.78445434570312C111.31151580810547,188.99514770507812,110.61399841308594,190.3407745361328,110.58689880371094,190.50389099121094C110.5733642578125,190.5718536376953,110.55303955078125,190.6398162841797,110.53273010253906,190.6602020263672C110.44469451904297,190.73495483398438,110.26184844970703,191.4349365234375,110.26184844970703,191.6728057861328C110.26184844970703,191.80873107910156,110.2212142944336,191.9786376953125,110.16705322265625,192.05340576171875C110.0586929321289,192.21649169921875,109.9164810180664,192.9912567138672,109.82167053222656,193.92233276367188C109.77426147460938,194.4252471923828,109.74040222167969,194.94175720214844,109.64559173583984,196.4708709716797C109.49662017822266,198.98544311523438,109.48307037353516,198.93788146972656,109.42888641357422,195.96116638183594C109.40857696533203,194.37088012695312,109.35440826416016,192.54270935058594,109.31376647949219,191.90386962890625L109.23927307128906,190.72816467285156L110.61399841308594,189.11746215820312C112.1918716430664,187.25534057617188,113.7833023071289,185.4272003173828,113.82393646240234,185.4272003173828C113.83747100830078,185.4272003173828,113.81038665771484,185.5087432861328,113.7697525024414,185.6106719970703ZM153.46725463867188,188.92718505859375L155.10610961914062,190.7621307373047L155.06546020507812,191.46893310546875C155.04515075683594,191.85630798339844,155.01805114746094,192.5902862548828,155.01805114746094,193.10000610351562C155.01129150390625,193.92233276367188,154.99774169921875,193.97669982910156,154.95034790039062,193.61651611328125C154.6117401123047,191.3601837158203,154.17156982421875,190.16409301757812,153.44696044921875,189.53883361816406C153.17608642578125,189.30096435546875,152.65463256835938,189.0970916748047,152.33633422851562,189.0970916748047C152.24830627441406,189.0970916748047,152.1805877685547,189.0699005126953,152.1805877685547,189.03591918945312C152.1805877685547,189.001953125,152.05870056152344,188.8524169921875,151.90969848632812,188.6961212158203C151.76071166992188,188.54660034179688,151.63882446289062,188.3903045654297,151.63882446289062,188.3631134033203C151.63882446289062,188.32913208007812,151.57786560058594,188.24757385253906,151.5033721923828,188.1796112060547C151.38148498535156,188.07086181640625,151.36795043945312,187.96893310546875,151.36795043945312,187.33689880371094L151.36795043945312,186.61651611328125L151.59820556640625,186.8543701171875C151.7268524169922,186.98348999023438,152.56658935546875,187.91456604003906,153.46725463867188,188.92718505859375ZM117.48757934570312,187.00389099121094C117.46726989746094,187.05824279785156,117.44694519042969,187.037841796875,117.44694519042969,186.96310424804688C117.440185546875,186.8883514404297,117.46049499511719,186.84756469726562,117.48081970214844,186.87477111816406C117.50112915039062,186.8951416015625,117.50788879394531,186.95631408691406,117.48757934570312,187.00389099121094ZM117.48757934570312,187.3436737060547C117.46726989746094,187.39125061035156,117.45372009277344,187.35728454589844,117.45372009277344,187.2621307373047C117.45372009277344,187.1669921875,117.46726989746094,187.13299560546875,117.48757934570312,187.1737823486328C117.50112915039062,187.2213592529297,117.50112915039062,187.30291748046875,117.48757934570312,187.3436737060547ZM146.6072235107422,188.4990234375C146.5869140625,188.54660034179688,146.5733642578125,188.5126190185547,146.5733642578125,188.41748046875C146.5733642578125,188.3223419189453,146.5869140625,188.28834533691406,146.6072235107422,188.32913208007812C146.6207733154297,188.37669372558594,146.6207733154297,188.45826721191406,146.6072235107422,188.4990234375ZM146.74266052246094,190.80972290039062C146.72235107421875,190.86407470703125,146.7020263671875,190.8436737060547,146.7020263671875,190.76893615722656C146.69525146484375,190.6941680908203,146.71559143066406,190.6533966064453,146.7358856201172,190.68057250976562C146.75621032714844,190.7009735107422,146.7629852294922,190.7621307373047,146.74266052246094,190.80972290039062ZM142.3408660888672,193.6300811767578C142.3273162841797,193.84756469726562,142.320556640625,193.67086791992188,142.320556640625,193.2427215576172C142.320556640625,192.8145751953125,142.3273162841797,192.6378631591797,142.3408660888672,192.84854125976562C142.3544158935547,193.06600952148438,142.3544158935547,193.41941833496094,142.3408660888672,193.6300811767578ZM127.34762573242188,194.037841796875C127.30023193359375,194.05145263671875,127.21896362304688,194.05145263671875,127.17832946777344,194.037841796875C127.13092041015625,194.01748657226562,127.16477966308594,194.00389099121094,127.25958251953125,194.00389099121094C127.35441589355469,194.00389099121094,127.38825988769531,194.01748657226562,127.34762573242188,194.037841796875ZM129.92098999023438,194.0650634765625C129.8668212890625,194.11941528320312,129.6636505126953,194.11941528320312,129.20993041992188,194.07862854003906L128.58013916015625,194.0106658935547L129.29119873046875,193.99710083007812C129.80587768554688,193.9902801513672,129.9751739501953,194.0106658935547,129.92098999023438,194.0650634765625ZM137.1264190673828,194.1669921875C137.1060791015625,194.1873779296875,137.04515075683594,194.1941680908203,136.99774169921875,194.1737823486328C136.94357299804688,194.1533966064453,136.9638671875,194.13299560546875,137.03836059570312,194.13299560546875C137.1128692626953,194.12620544433594,137.1534881591797,194.14659118652344,137.1264190673828,194.1669921875ZM138.8871307373047,194.1669921875C138.8668212890625,194.1873779296875,138.8058624267578,194.1941680908203,138.7584686279297,194.1737823486328C138.70428466796875,194.1533966064453,138.724609375,194.13299560546875,138.79910278320312,194.13299560546875C138.87359619140625,194.12620544433594,138.9142303466797,194.14659118652344,138.8871307373047,194.1669921875ZM146.87811279296875,195.4990234375C146.85777282714844,195.54660034179688,146.84423828125,195.5126190185547,146.84423828125,195.41748046875C146.84423828125,195.3223419189453,146.85777282714844,195.28834533691406,146.87811279296875,195.32913208007812C146.89163208007812,195.37669372558594,146.89163208007812,195.45826721191406,146.87811279296875,195.4990234375ZM146.40406799316406,196.3145751953125C146.39051818847656,196.51165771484375,146.3837432861328,196.36892700195312,146.3837432861328,195.99514770507812C146.3837432861328,195.62135314941406,146.39051818847656,195.45826721191406,146.40406799316406,195.6349639892578C146.4176025390625,195.8116455078125,146.4176025390625,196.11746215820312,146.40406799316406,196.3145751953125ZM121.21218872070312,196.04270935058594C121.19186401367188,196.0902862548828,121.17832946777344,196.05630493164062,121.17832946777344,195.96116638183594C121.17832946777344,195.86602783203125,121.19186401367188,195.83203125,121.21218872070312,195.87281799316406C121.22573852539062,195.92037963867188,121.22573852539062,196.001953125,121.21218872070312,196.04270935058594ZM126.96839904785156,196.5184326171875C126.95486450195312,196.60679626464844,126.94129943847656,196.55242919921875,126.94129943847656,196.4029083251953C126.93453979492188,196.25338745117188,126.94808959960938,196.1854248046875,126.96839904785156,196.24661254882812C126.98193359375,196.3145751953125,126.98193359375,196.4368896484375,126.96839904785156,196.5184326171875ZM121.68624877929688,196.55242919921875C121.66590881347656,196.62039184570312,121.65237426757812,196.56600952148438,121.65237426757812,196.4368896484375C121.65237426757812,196.30775451660156,121.66590881347656,196.25338745117188,121.68624877929688,196.3145751953125C121.69976806640625,196.38253784179688,121.69976806640625,196.4912567138672,121.68624877929688,196.55242919921875ZM154.93678283691406,196.7223358154297C154.92324829101562,196.81068420410156,154.9097137451172,196.7427215576172,154.9097137451172,196.57281494140625C154.9097137451172,196.4029083251953,154.92324829101562,196.3349609375,154.93678283691406,196.41650390625C154.95034790039062,196.50485229492188,154.95034790039062,196.64077758789062,154.93678283691406,196.7223358154297ZM126.49435424804688,196.5184326171875C126.47404479980469,196.57281494140625,126.45372009277344,196.55242919921875,126.45372009277344,196.47767639160156C126.44696044921875,196.4029083251953,126.46728515625,196.3621368408203,126.48757934570312,196.3893280029297C126.50790405273438,196.4097137451172,126.51466369628906,196.4708709716797,126.49435424804688,196.5184326171875ZM121.21218872070312,196.89222717285156C121.19186401367188,196.960205078125,121.17832946777344,196.91941833496094,121.17832946777344,196.81068420410156C121.17832946777344,196.6951446533203,121.19186401367188,196.6475830078125,121.21218872070312,196.6883544921875C121.22573852539062,196.73593139648438,121.22573852539062,196.83108520507812,121.21218872070312,196.89222717285156ZM126.49435424804688,196.79029846191406C126.47404479980469,196.84466552734375,126.45372009277344,196.8242645263672,126.45372009277344,196.74951171875C126.44696044921875,196.6747589111328,126.46728515625,196.63397216796875,126.48757934570312,196.66114807128906C126.50790405273438,196.68154907226562,126.51466369628906,196.7427215576172,126.49435424804688,196.79029846191406ZM136.38148498535156,196.85826110839844C136.36117553710938,196.90582275390625,136.34762573242188,196.87184143066406,136.34762573242188,196.77670288085938C136.34762573242188,196.68154907226562,136.36117553710938,196.6475830078125,136.38148498535156,196.6883544921875C136.39503479003906,196.73593139648438,136.39503479003906,196.81747436523438,136.38148498535156,196.85826110839844ZM146.87811279296875,196.79029846191406C146.85777282714844,196.84466552734375,146.8374786376953,196.8242645263672,146.8374786376953,196.74951171875C146.83070373535156,196.6747589111328,146.85101318359375,196.63397216796875,146.871337890625,196.66114807128906C146.89163208007812,196.68154907226562,146.89840698242188,196.7427215576172,146.87811279296875,196.79029846191406ZM121.68624877929688,198.11553955078125C121.67268371582031,198.2990264892578,121.66590881347656,198.14950561523438,121.66590881347656,197.79611206054688C121.66590881347656,197.4427032470703,121.67268371582031,197.293212890625,121.68624877929688,197.46990966796875C121.69976806640625,197.6533966064453,121.69976806640625,197.93882751464844,121.68624877929688,198.11553955078125ZM146.87811279296875,198.42137145996094C146.8645477294922,198.6592254638672,146.85777282714844,198.46893310546875,146.85777282714844,198C146.85777282714844,197.53106689453125,146.8645477294922,197.3407745361328,146.87811279296875,197.5718536376953C146.89163208007812,197.80972290039062,146.89163208007812,198.19027709960938,146.87811279296875,198.42137145996094ZM146.40406799316406,199.03302001953125C146.3837432861328,199.08058166503906,146.37020874023438,199.04660034179688,146.37020874023438,198.95144653320312C146.37020874023438,198.85630798339844,146.3837432861328,198.8223419189453,146.40406799316406,198.8631134033203C146.4176025390625,198.91067504882812,146.4176025390625,198.9922332763672,146.40406799316406,199.03302001953125ZM146.87811279296875,199.33885192871094C146.85777282714844,199.4068145751953,146.84423828125,199.3524169921875,146.84423828125,199.22329711914062C146.84423828125,199.09417724609375,146.85777282714844,199.039794921875,146.87811279296875,199.10098266601562C146.89163208007812,199.16891479492188,146.89163208007812,199.2776641845703,146.87811279296875,199.33885192871094ZM116.91874694824219,199.54270935058594C116.871337890625,199.55630493164062,116.77651977539062,199.55630493164062,116.715576171875,199.54270935058594C116.64785766601562,199.52232360839844,116.68849182128906,199.5087432861328,116.79682922363281,199.5087432861328C116.91195678710938,199.5087432861328,116.95936584472656,199.52232360839844,116.91874694824219,199.54270935058594ZM109.49662017822266,199.84854125976562C109.4762954711914,199.8961181640625,109.46275329589844,199.8621368408203,109.46275329589844,199.76699829101562C109.46275329589844,199.67184448242188,109.4762954711914,199.6378631591797,109.49662017822266,199.67864990234375C109.5101547241211,199.72621154785156,109.5101547241211,199.80775451660156,109.49662017822266,199.84854125976562ZM121.009033203125,199.67184448242188C120.98870849609375,199.69224548339844,120.92776489257812,199.69903564453125,120.88035583496094,199.67864990234375C120.826171875,199.6582489013672,120.84649658203125,199.6378631591797,120.92100524902344,199.6378631591797C120.9954833984375,199.63107299804688,121.03611755371094,199.65145874023438,121.009033203125,199.67184448242188ZM121.36795043945312,200.10679626464844C124.29344177246094,200.2223358154297,135.0203094482422,200.31747436523438,141.63656616210938,200.2970733642578L148.04965209960938,200.27670288085938L148.04965209960938,200.92913818359375C148.04965209960938,201.28932189941406,148.02935791015625,201.85340881347656,148.009033203125,202.1931915283203L147.96163940429688,202.8048553466797L147.4130859375,202.81845092773438C147.11512756347656,202.8252410888672,146.42437744140625,202.83885192871094,145.8826141357422,202.8524169921875C145.3408660888672,202.86602783203125,139.61851501464844,202.87960815429688,133.16477966308594,202.88641357421875C122.34310913085938,202.89320373535156,121.42889404296875,202.89999389648438,121.38825988769531,203.001953125C121.27313232421875,203.30096435546875,121.30699157714844,203.30096435546875,126.90068054199219,203.30096435546875L132.2031707763672,203.30096435546875L132.2031707763672,208.3436737060547C132.2031707763672,211.12330627441406,132.2234649658203,216.03009033203125,132.2505645751953,219.25146484375L132.29119873046875,225.11651611328125L126.05416870117188,225.11651611328125L119.81037902832031,225.11651611328125L119.81037902832031,214.0456085205078C119.81037902832031,207.95631408691406,119.79684448242188,202.92718505859375,119.77651977539062,202.87960815429688C119.74266052246094,202.8048553466797,119.5869140625,202.78445434570312,119.03160095214844,202.79806518554688C118.44244384765625,202.8116455078125,118.33409118652344,202.79806518554688,118.36795043945312,202.71649169921875C118.38825988769531,202.66213989257812,118.36116027832031,202.61456298828125,118.29345703125,202.61456298828125C118.16477966308594,202.60098266601562,118.14447021484375,202.60098266601562,117.88713073730469,202.53302001953125C117.76524353027344,202.4990234375,117.48757934570312,202.5194091796875,117.15576171875,202.59417724609375C116.86456298828125,202.65533447265625,116.60044860839844,202.68931579589844,116.5733642578125,202.66213989257812C116.49887084960938,202.58058166503906,116.53273010253906,201.35049438476562,116.62754821777344,200.61651611328125L116.715576171875,199.95729064941406L118.21218872070312,199.998046875C119.03837585449219,200.02525329589844,120.45372009277344,200.07281494140625,121.36795043945312,200.10679626464844ZM113.08576965332031,200.66409301757812C113.06546020507812,200.71165466308594,113.05192565917969,200.6776580810547,113.05192565917969,200.58251953125C113.05192565917969,200.4873809814453,113.06546020507812,200.45339965820312,113.08576965332031,200.4941864013672C113.09931945800781,200.54173278808594,113.09931945800781,200.62330627441406,113.08576965332031,200.66409301757812ZM113.559814453125,200.90194702148438C113.53950500488281,200.96990966796875,113.52595520019531,200.91552734375,113.52595520019531,200.78640747070312C113.52595520019531,200.6572723388672,113.53950500488281,200.6029052734375,113.559814453125,200.66409301757812C113.5733642578125,200.7320556640625,113.5733642578125,200.8407745361328,113.559814453125,200.90194702148438ZM113.08576965332031,201.1398162841797C113.06546020507812,201.1941680908203,113.0451431274414,201.1737823486328,113.0451431274414,201.09902954101562C113.03837585449219,201.02427673339844,113.05868530273438,200.98348999023438,113.07901000976562,201.0106658935547C113.09931945800781,201.03106689453125,113.10609436035156,201.0922393798828,113.08576965332031,201.1398162841797ZM113.559814453125,201.41163635253906C113.5462646484375,201.5,113.53273010253906,201.44564819335938,113.53273010253906,201.29611206054688C113.52595520019531,201.14659118652344,113.53950500488281,201.07862854003906,113.559814453125,201.1398162841797C113.5733642578125,201.20777893066406,113.5733642578125,201.33009338378906,113.559814453125,201.41163635253906ZM113.559814453125,201.9893341064453C113.53950500488281,202.0572967529297,113.52595520019531,202.00289916992188,113.52595520019531,201.87379455566406C113.52595520019531,201.74465942382812,113.53950500488281,201.69027709960938,113.559814453125,201.75146484375C113.5733642578125,201.81942749023438,113.5733642578125,201.9281463623047,113.559814453125,201.9893341064453ZM113.559814453125,202.56698608398438C113.53950500488281,202.62135314941406,113.5191879272461,202.60098266601562,113.5191879272461,202.5261993408203C113.51242065429688,202.45144653320312,113.53273010253906,202.41067504882812,113.55305480957031,202.43788146972656C113.5733642578125,202.45826721191406,113.58013916015625,202.5194091796875,113.559814453125,202.56698608398438ZM119.404052734375,203.26699829101562C119.404052734375,203.32135009765625,119.37698364257812,203.36892700195312,119.34310913085938,203.36892700195312C119.25508117675781,203.36892700195312,119.19412231445312,203.26019287109375,119.24830627441406,203.20582580566406C119.32279968261719,203.13107299804688,119.404052734375,203.1650390625,119.404052734375,203.26699829101562ZM117.8668212890625,203.2805633544922C117.81941223144531,203.29417419433594,117.724609375,203.29417419433594,117.66365051269531,203.2805633544922C117.59593200683594,203.26019287109375,117.63656616210938,203.24661254882812,117.74493408203125,203.24661254882812C117.86004638671875,203.24661254882812,117.90745544433594,203.26019287109375,117.8668212890625,203.2805633544922ZM118.4085693359375,203.2805633544922C118.36116027832031,203.29417419433594,118.2799072265625,203.29417419433594,118.23927307128906,203.2805633544922C118.19187927246094,203.26019287109375,118.22572326660156,203.24661254882812,118.32054138183594,203.24661254882812C118.41534423828125,203.24661254882812,118.44920349121094,203.26019287109375,118.4085693359375,203.2805633544922ZM145.77426147460938,203.27378845214844C145.94357299804688,203.30096435546875,146.0857696533203,203.34854125976562,146.0857696533203,203.3893280029297C146.0857696533203,203.4300994873047,146.06546020507812,203.4368896484375,146.04513549804688,203.41650390625C145.97064208984375,203.3417510986328,145.48983764648438,204.0077667236328,145.3408660888672,204.3951416015625C145.2595977783203,204.59902954101562,145.17156982421875,205.0203857421875,145.1376953125,205.3397979736328C145.09707641601562,205.8223419189453,145.09030151367188,205.70001220703125,145.07675170898438,204.5718536376953L145.06997680664062,203.23300170898438L145.266357421875,203.23300170898438C145.36795043945312,203.23300170898438,145.59820556640625,203.25338745117188,145.77426147460938,203.27378845214844ZM148.06997680664062,203.2805633544922C148.02256774902344,203.29417419433594,147.94129943847656,203.29417419433594,147.9006805419922,203.2805633544922C147.853271484375,203.26019287109375,147.8871307373047,203.24661254882812,147.98193359375,203.24661254882812C148.07675170898438,203.24661254882812,148.11061096191406,203.26019287109375,148.06997680664062,203.2805633544922ZM144.66366577148438,214.208740234375L144.66366577148438,225.11651611328125L138.63658142089844,225.11651611328125L132.60948181152344,225.11651611328125L132.60948181152344,214.208740234375L132.60948181152344,203.30096435546875L138.63658142089844,203.30096435546875L144.66366577148438,203.30096435546875L144.66366577148438,214.208740234375ZM113.559814453125,203.62039184570312C113.53950500488281,203.6883544921875,113.52595520019531,203.6475830078125,113.52595520019531,203.53883361816406C113.52595520019531,203.4232940673828,113.53950500488281,203.375732421875,113.559814453125,203.41650390625C113.5733642578125,203.46408081054688,113.5733642578125,203.55921936035156,113.559814453125,203.62039184570312ZM151.34762573242188,204.06211853027344C151.33407592773438,204.18447875976562,151.320556640625,204.1029052734375,151.320556640625,203.87864685058594C151.320556640625,203.6543731689453,151.33407592773438,203.55242919921875,151.34762573242188,203.6543731689453C151.36117553710938,203.7563018798828,151.36117553710938,203.93980407714844,151.34762573242188,204.06211853027344ZM113.08576965332031,204.2320556640625C113.07223510742188,204.3407745361328,113.05868530273438,204.25242614746094,113.05868530273438,204.04855346679688C113.05868530273438,203.84466552734375,113.07223510742188,203.7563018798828,113.08576965332031,203.85826110839844C113.09931945800781,203.96697998046875,113.09931945800781,204.1300811767578,113.08576965332031,204.2320556640625ZM150.8735809326172,204.40194702148438C150.853271484375,204.45631408691406,150.8329620361328,204.4359130859375,150.8329620361328,204.36117553710938C150.826171875,204.28640747070312,150.8464813232422,204.24562072753906,150.8668212890625,204.27281188964844C150.88714599609375,204.293212890625,150.8939208984375,204.3543701171875,150.8735809326172,204.40194702148438ZM113.559814453125,204.7417449951172C113.53950500488281,204.78932189941406,113.52595520019531,204.75534057617188,113.52595520019531,204.6602020263672C113.52595520019531,204.5650634765625,113.53950500488281,204.53106689453125,113.559814453125,204.5718536376953C113.5733642578125,204.61941528320312,113.5733642578125,204.7009735107422,113.559814453125,204.7417449951172ZM151.34762573242188,205.04757690429688C151.33407592773438,205.1563262939453,151.320556640625,205.08154296875,151.320556640625,204.89805603027344C151.320556640625,204.70777893066406,151.33407592773438,204.62620544433594,151.34762573242188,204.70777893066406C151.36117553710938,204.79611206054688,151.36117553710938,204.94564819335938,151.34762573242188,205.04757690429688ZM150.8735809326172,206.6106719970703C150.86004638671875,206.75338745117188,150.8464813232422,206.6378631591797,150.8464813232422,206.35922241210938C150.8464813232422,206.08058166503906,150.86004638671875,205.96505737304688,150.8735809326172,206.10098266601562C150.88714599609375,206.2436981201172,150.88714599609375,206.47474670410156,150.8735809326172,206.6106719970703ZM109.4898452758789,206.8961181640625C109.55079650878906,207.2698974609375,109.577880859375,207.69805908203125,109.55756378173828,207.9495086669922C109.53047943115234,208.1737823486328,109.49662017822266,208.5747528076172,109.48307037353516,208.8330078125C109.46275329589844,209.09805297851562,109.42888641357422,209.3699188232422,109.41535186767578,209.4446563720703C109.40180969238281,209.5261993408203,109.3679428100586,209.92037963867188,109.34762573242188,210.3349609375C109.32731628417969,210.7427215576172,109.29345703125,211.0893096923828,109.2799072265625,211.1096954345703C109.22573852539062,211.1572723388672,109.24604797363281,206.48834228515625,109.29345703125,206.18931579589844C109.33407592773438,205.9786376953125,109.34762573242188,205.95823669433594,109.3679428100586,206.08737182617188C109.37471008300781,206.18252563476562,109.4356689453125,206.54270935058594,109.4898452758789,206.8961181640625ZM145.11737060546875,210.24661254882812C145.11061096191406,210.85826110839844,145.09707641601562,210.3621368408203,145.09707641601562,209.1456298828125C145.09707641601562,207.92913818359375,145.11061096191406,207.43301391601562,145.11737060546875,208.037841796875C145.1309356689453,208.64950561523438,145.1309356689453,209.64173889160156,145.11737060546875,210.24661254882812ZM150.8735809326172,207.79998779296875C150.86004638671875,207.96310424804688,150.8464813232422,207.833984375,150.8464813232422,207.51455688476562C150.8464813232422,207.1951446533203,150.86004638671875,207.06600952148438,150.8735809326172,207.2223358154297C150.88714599609375,207.38543701171875,150.88714599609375,207.64369201660156,150.8735809326172,207.79998779296875ZM147.21670532226562,208.41163635253906C147.19638061523438,208.4660186767578,147.17605590820312,208.44564819335938,147.17605590820312,208.370849609375C147.16929626464844,208.29611206054688,147.1896209716797,208.25534057617188,147.20993041992188,208.28253173828125C147.23025512695312,208.30291748046875,147.2370147705078,208.36407470703125,147.21670532226562,208.41163635253906ZM147.21670532226562,208.81942749023438C147.19638061523438,208.86700439453125,147.18284606933594,208.8330078125,147.18284606933594,208.7378692626953C147.18284606933594,208.64271545410156,147.19638061523438,208.60874938964844,147.21670532226562,208.64950561523438C147.23025512695312,208.69708251953125,147.23025512695312,208.7786407470703,147.21670532226562,208.81942749023438ZM147.826171875,216.02330017089844C147.81265258789062,216.1456298828125,147.79910278320312,216.0504913330078,147.79910278320312,215.8058319091797C147.79910278320312,215.56117248535156,147.81265258789062,215.4660186767578,147.826171875,215.58154296875C147.8397216796875,215.70388793945312,147.8397216796875,215.9077606201172,147.826171875,216.02330017089844ZM147.35214233398438,216.43106079101562C147.33860778808594,216.5194091796875,147.32504272460938,216.46505737304688,147.32504272460938,216.31552124023438C147.31826782226562,216.166015625,147.33184814453125,216.09805297851562,147.35214233398438,216.1592254638672C147.36570739746094,216.22718811035156,147.36570739746094,216.34951782226562,147.35214233398438,216.43106079101562ZM147.35214233398438,216.9068145751953C147.33184814453125,216.96116638183594,147.31150817871094,216.94078063964844,147.31150817871094,216.86602783203125C147.30474853515625,216.791259765625,147.32504272460938,216.75048828125,147.34536743164062,216.7776641845703C147.36570739746094,216.79806518554688,147.37246704101562,216.85922241210938,147.35214233398438,216.9068145751953ZM145.164794921875,220.85533142089844C145.18508911132812,220.99807739257812,145.21896362304688,221.14077758789062,145.2460479736328,221.18154907226562C145.27313232421875,221.2223358154297,145.2866973876953,221.5077667236328,145.2799072265625,221.81358337402344C145.266357421875,222.5339813232422,145.37472534179688,223.35630798339844,145.5304718017578,223.70970153808594C145.7539520263672,224.20582580566406,146.36341857910156,224.7427215576172,147,225.0009765625C147.2641143798828,225.1096954345703,147.25057983398438,225.1096954345703,146.173828125,225.1096954345703L145.06997680664062,225.11651611328125L145.06997680664062,222.8262176513672C145.06997680664062,221.56893920898438,145.08351135253906,220.55630493164062,145.1038360595703,220.5699005126953C145.11737060546875,220.5902862548828,145.15122985839844,220.7194366455078,145.164794921875,220.85533142089844ZM109.36117553710938,221.08639526367188C109.34086608886719,221.1543731689453,109.32731628417969,221.11358642578125,109.32731628417969,221.00485229492188C109.32731628417969,220.8893280029297,109.34086608886719,220.8417510986328,109.36117553710938,220.88253784179688C109.37471008300781,220.9300994873047,109.37471008300781,221.02525329589844,109.36117553710938,221.08639526367188ZM119.404052734375,223.72329711914062L119.404052734375,225.11651611328125L118.78103637695312,225.11651611328125C118.17832946777344,225.11651611328125,118.15802001953125,225.1096954345703,118.32054138183594,225.0009765625C118.94357299804688,224.58639526367188,119.23477172851562,223.99514770507812,119.30926513671875,222.9893341064453C119.33634948730469,222.622314453125,119.36343383789062,222.33009338378906,119.37698364257812,222.33009338378906C119.39051818847656,222.33009338378906,119.404052734375,222.955322265625,119.404052734375,223.72329711914062ZM109.4898452758789,224.6883544921875C109.46952056884766,224.708740234375,109.49662017822266,224.81068420410156,109.55756378173828,224.91941833496094C109.65237426757812,225.1029052734375,109.64559173583984,225.11651611328125,109.51692962646484,225.11651611328125C109.40180969238281,225.11651611328125,109.3814926147461,225.0757293701172,109.3814926147461,224.83786010742188C109.3814926147461,224.66114807128906,109.40857696533203,224.57962036132812,109.45598602294922,224.60679626464844C109.49662017822266,224.63397216796875,109.5101547241211,224.66796875,109.4898452758789,224.6883544921875ZM116.24153137207031,225.09613037109375C116.19412231445312,225.1096954345703,116.11286926269531,225.1096954345703,116.07223510742188,225.09613037109375C116.02484130859375,225.0757293701172,116.05868530273438,225.06211853027344,116.15350341796875,225.06211853027344C116.24830627441406,225.06211853027344,116.28216552734375,225.0757293701172,116.24153137207031,225.09613037109375Z" style="fill:#e60d0d;fill-opacity:1"></path></g></g><g id="shape-5aac0447-3c1f-803f-8006-73f878b05c54"><defs></defs><g class="fills" id="fills-5aac0447-3c1f-803f-8006-73f878b05c54"><path d="M134.5530548095703,172.833984375C134.3363494873047,173.044677734375,134.73590087890625,173.31649780273438,137.79006958007812,175.02911376953125C139.96388244628906,176.24562072753906,144.0203094482422,178.29806518554688,144.15574645996094,178.25048828125C144.21670532226562,178.22329711914062,144.25733947753906,178.14854431152344,144.24380493164062,178.07379150390625C144.23023986816406,177.97183227539062,143.715576171875,177.67959594726562,142.12416076660156,176.87086486816406C139.4830780029297,175.52523803710938,137.2550811767578,174.30194091796875,135.31829833984375,173.1330108642578C134.74266052246094,172.78640747070312,134.63430786132812,172.74562072753906,134.5530548095703,172.833984375Z" style="fill:#e60d0d;fill-opacity:1"></path></g></g><g id="shape-5aac0447-3c1f-803f-8006-73f878b05c55"><defs></defs><g class="fills" id="fills-5aac0447-3c1f-803f-8006-73f878b05c55"><path d="M121.7471923828125,176.48348999023438C120.04063415527344,177.46893310546875,118.60496520996094,178.31845092773438,118.54402160644531,178.37960815429688C118.45597839355469,178.46795654296875,118.44920349121094,178.5087432861328,118.52371215820312,178.59030151367188C118.57110595703125,178.65145874023438,118.63204956054688,178.69903564453125,118.66590881347656,178.69903564453125C118.74717712402344,178.69903564453125,124.98419189453125,175.0902862548828,125.03837585449219,175.0087432861328C125.09254455566406,174.92037963867188,125.03837585449219,174.7776641845703,124.93002319335938,174.7368927001953C124.88262939453125,174.7165069580078,123.44696044921875,175.50485229492188,121.7471923828125,176.48348999023438Z" style="fill:#e60d0d;fill-opacity:1"></path></g></g><g id="shape-5aac0447-3c1f-803f-8006-73f878b05c56"><defs></defs><g class="fills" id="fills-5aac0447-3c1f-803f-8006-73f878b05c56"><path d="M145.52371215820312,178.81455993652344C145.38824462890625,178.94369506835938,145.51014709472656,179.11358642578125,145.92324829101562,179.37185668945312C146.40406799316406,179.6776580810547,146.5801239013672,179.69805908203125,146.61398315429688,179.4805908203125C146.62753295898438,179.37185668945312,146.5259552001953,179.2698974609375,146.18734741210938,179.05242919921875C145.7471923828125,178.77378845214844,145.61172485351562,178.71942138671875,145.52371215820312,178.81455993652344Z" style="fill:#e60d0d;fill-opacity:1"></path></g></g><g id="shape-5aac0447-3c1f-803f-8006-73f878b0bf0f"><defs></defs><g class="fills" id="fills-5aac0447-3c1f-803f-8006-73f878b0bf0f"><path d="M108.83973693847656,187.3436737060547C107.33634185791016,189.03591918945312,106.06998443603516,190.46990966796875,106.01580047607422,190.53106689453125C105.90068054199219,190.6669921875,105.96839141845703,190.86407470703125,106.13092803955078,190.86407470703125C106.19863891601562,190.86407470703125,106.97064971923828,190.0553436279297,108.0406265258789,188.83885192871094C109.02935028076172,187.73106384277344,110.28215789794922,186.31747436523438,110.83070373535156,185.69903564453125C111.8126449584961,184.5912628173828,111.96839904785156,184.33981323242188,111.67720794677734,184.2854461669922C111.6094741821289,184.2718505859375,110.61399841308594,185.33883666992188,108.83973693847656,187.3436737060547Z" style="fill:#e60d0d;fill-opacity:1"></path></g></g><g id="shape-5aac0447-3c1f-803f-8006-73f878b0bf10"><defs></defs><g class="fills" id="fills-5aac0447-3c1f-803f-8006-73f878b0bf10"><path d="M153.27764892578125,185.16893005371094C153.23023986816406,185.2165069580078,153.19638061523438,185.2844696044922,153.19638061523438,185.33203125C153.19638061523438,185.37281799316406,153.4875946044922,185.72621154785156,153.84649658203125,186.11358642578125C155.28216552734375,187.66990661621094,156.72459411621094,189.35533142089844,157.8961639404297,190.85049438476562C158.36343383789062,191.455322265625,158.5259552001953,191.6116485595703,158.6343231201172,191.59805297851562C158.715576171875,191.58447265625,158.79006958007812,191.53009033203125,158.80360412597656,191.47572326660156C158.8239288330078,191.3601837158203,157.12416076660156,189.2194366455078,155.85101318359375,187.75146484375C154.78103637695312,186.51455688476562,153.47402954101562,185.08737182617188,153.4063262939453,185.08737182617188C153.3792266845703,185.08737182617188,153.32505798339844,185.12136840820312,153.27764892578125,185.16893005371094Z" style="fill:#e60d0d;fill-opacity:1"></path></g></g><g id="shape-5aac0447-3c1f-803f-8006-73f878b0bf11"><defs></defs><g class="fills" id="fills-5aac0447-3c1f-803f-8006-73f878b0bf11"><path d="M154.733642578125,188.46505737304688C154.6320343017578,188.56019592285156,154.70654296875,188.6961212158203,155.1941375732422,189.30096435546875C155.47854614257812,189.6475830078125,155.86456298828125,190.1572723388672,156.05416870117188,190.42913818359375C156.3995361328125,190.93203735351562,156.6094970703125,191.05435180664062,156.69752502441406,190.8233184814453C156.7449188232422,190.7009735107422,156.35214233398438,190.1029052734375,155.559814453125,189.1106719970703C155.0586700439453,188.4786376953125,154.86228942871094,188.32913208007812,154.733642578125,188.46505737304688Z" style="fill:#e60d0d;fill-opacity:1"></path></g></g><g id="shape-5aac0447-3c1f-803f-8006-73f878b0bf12"><defs></defs><g class="fills" id="fills-5aac0447-3c1f-803f-8006-73f878b0bf12"><path d="M123.37246704101562,188.85922241210938C123.34536743164062,189.83108520507812,123.2979736328125,190.91845703125,123.2708740234375,191.27183532714844C123.23023986816406,191.666015625,123.23703002929688,191.9446563720703,123.27764892578125,191.98544311523438C123.34536743164062,192.06019592285156,139.6862335205078,192.12135314941406,139.9774169921875,192.05340576171875C140.092529296875,192.0261993408203,140.12640380859375,191.97183227539062,140.1128692626953,191.8631134033203L140.092529296875,191.71359252929688L136.0293426513672,191.6796112060547L131.9661407470703,191.6456298828125L131.94581604003906,190.6941680908203C131.93228149414062,190.17086791992188,131.94581604003906,189.24661254882812,131.9661407470703,188.6349639892578L132.0135498046875,187.5339813232422L135.88714599609375,187.54757690429688L139.7539520263672,187.56796264648438L139.77426147460938,189.0631103515625C139.78781127929688,190.55824279785156,139.8148956298828,190.7009735107422,140.0383758544922,190.61264038085938C140.10610961914062,190.58543395996094,140.12640380859375,190.2388458251953,140.12640380859375,188.88641357421875L140.12640380859375,187.1941680908203L139.9774169921875,187.1602020263672C139.88938903808594,187.1398162841797,136.13092041015625,187.11941528320312,131.6207733154297,187.10580444335938L123.41986083984375,187.0922393798828L123.37246704101562,188.85922241210938ZM131.5666046142578,189.60679626464844L131.559814453125,191.6796112060547L127.59819030761719,191.666015625C124.11737060546875,191.6456298828125,123.63656616210938,191.63204956054688,123.66366577148438,191.54368591308594C123.67720031738281,191.4893341064453,123.70428466796875,190.5650634765625,123.724609375,189.48446655273438L123.75846862792969,187.5339813232422L127.66592407226562,187.5339813232422L131.5733642578125,187.5339813232422L131.5666046142578,189.60679626464844Z" style="fill:#e60d0d;fill-opacity:1"></path></g></g><g id="shape-5aac0447-3c1f-803f-8006-73f878b0ff72"><defs></defs><g class="fills" id="fills-5aac0447-3c1f-803f-8006-73f878b0ff72"><path d="M121.37472534179688,204.95921325683594C121.30699157714844,205.04078674316406,121.32054138183594,205.08836364746094,121.44920349121094,205.21746826171875C121.59820556640625,205.36700439453125,121.60496520996094,205.44175720214844,121.65914916992188,206.6650390625C121.69300842285156,207.37184143066406,121.7200927734375,210.0631103515625,121.72685241699219,212.6456298828125C121.73362731933594,217.01553344726562,121.679443359375,219.44854736328125,121.50338745117188,222.36407470703125C121.46275329589844,223.03689575195312,121.46275329589844,223.40386962890625,121.51016235351562,223.45144653320312C121.60496520996094,223.54660034179688,129.92098999023438,223.58058166503906,130.1038360595703,223.48544311523438C130.23927307128906,223.4106903076172,130.23927307128906,223.34951782226562,130.22573852539062,214.1543731689453L130.20541381835938,204.89805603027344L125.83070373535156,204.877685546875C122.08578491210938,204.86407470703125,121.44244384765625,204.877685546875,121.37472534179688,204.95921325683594ZM122.51919555664062,205.37379455566406C122.51919555664062,205.4281463623047,122.99322509765625,206.3048553466797,123.57562255859375,207.3242645263672C124.15802001953125,208.3436737060547,124.90969848632812,209.70970153808594,125.24153137207031,210.34854125976562C125.60044860839844,211.04176330566406,125.89164733886719,211.52427673339844,125.94581604003906,211.52427673339844C126.08126831054688,211.52427673339844,126.18960571289062,211.333984375,127.320556640625,209.07766723632812C127.8758544921875,207.97669982910156,128.53273010253906,206.70582580566406,128.77651977539062,206.26406860351562C129.0203094482422,205.81552124023438,129.22348022460938,205.41455078125,129.22348022460938,205.3601837158203C129.22348022460938,205.2990264892578,129.3182830810547,205.27183532714844,129.52821350097656,205.27183532714844L129.8329620361328,205.27183532714844L129.8329620361328,206.52232360839844L129.8329620361328,207.7796173095703L129.46051025390625,208.5203857421875C129.25733947753906,208.9281463623047,128.81715393066406,209.93399047851562,128.47177124023438,210.74951171875C127.8487548828125,212.24465942382812,127.65235900878906,212.67283630371094,127.26637268066406,213.35922241210938C127.1512451171875,213.5631103515625,127.05642700195312,213.82135009765625,127.05642700195312,213.9232940673828C127.05642700195312,214.03883361816406,127.320556640625,214.5893096923828,127.7200927734375,215.31649780273438C128.09255981445312,215.97572326660156,128.715576171875,217.11746215820312,129.11512756347656,217.8514404296875L129.8329620361328,219.18350219726562L129.81939697265625,220.8961181640625L129.79910278320312,222.60874938964844L129.39956665039062,221.9087371826172C128.7358856201172,220.75338745117188,127.59819030761719,218.6398162841797,126.86004638671875,217.2194366455078C126.48080444335938,216.4786376953125,126.13545227050781,215.8601837158203,126.10159301757812,215.8330078125C125.972900390625,215.7582550048828,125.66816711425781,216.166015625,125.24153137207031,216.96795654296875C124.24606323242188,218.870849609375,121.97065734863281,222.622314453125,121.91647338867188,222.45921325683594C121.90969848632812,222.4252471923828,121.93002319335938,221.67086791992188,121.97065734863281,220.7873992919922L122.05191040039062,219.19027709960938L123.29118347167969,217.20582580566406C123.97517395019531,216.1184539794922,124.68623352050781,214.98348999023438,124.88262939453125,214.68447875976562C125.07223510742188,214.38543701171875,125.22799682617188,214.05921936035156,125.22799682617188,213.96408081054688C125.22799682617188,213.7602081298828,123.85328674316406,211.06893920898438,122.79006958007812,209.1796112060547C122.01806640625,207.8068084716797,122.08578491210938,208.05824279785156,122.01806640625,206.16891479492188L121.98419189453125,205.27183532714844L122.24830627441406,205.27183532714844C122.4447021484375,205.27183532714844,122.51919555664062,205.2990264892578,122.51919555664062,205.37379455566406ZM124.24606323242188,207.43980407714844C124.42889404296875,207.68447875976562,124.61174011230469,207.9087371826172,124.65237426757812,207.9359130859375C124.68623352050781,207.96310424804688,124.69976806640625,207.9902801513672,124.67269897460938,207.9902801513672C124.64559936523438,207.9902801513672,124.6929931640625,208.0922393798828,124.78103637695312,208.2213592529297C124.8623046875,208.35049438476562,124.97743225097656,208.54757690429688,125.02482604980469,208.66310119628906C125.07223510742188,208.7786407470703,125.13995361328125,208.87379455566406,125.17381286621094,208.87379455566406C125.20767211914062,208.87379455566406,125.22122192382812,208.90097045898438,125.19413757324219,208.94175720214844C125.17381286621094,208.97572326660156,125.21444702148438,209.0640869140625,125.2889404296875,209.13882446289062C125.36343383789062,209.21359252929688,125.40406799316406,209.28155517578125,125.39051818847656,209.30194091796875C125.37020874023438,209.31552124023438,125.46501159667969,209.43788146972656,125.60044860839844,209.5737762451172C125.871337890625,209.8456268310547,126.16253662109375,209.94078063964844,126.37245178222656,209.8252410888672C126.45372009277344,209.78445434570312,126.51466369628906,209.77088928222656,126.51466369628906,209.78445434570312C126.51466369628906,209.85922241210938,126.0135498046875,210.84466552734375,125.972900390625,210.84466552734375C125.95260620117188,210.84466552734375,125.81039428710938,210.5931854248047,125.65463256835938,210.2805633544922C125.49887084960938,209.97474670410156,125.10609436035156,209.24757385253906,124.78103637695312,208.66990661621094C124.11061096191406,207.460205078125,123.69073486328125,206.67864990234375,123.81942749023438,206.8621368408203C123.86680603027344,206.9300994873047,124.05642700195312,207.1883544921875,124.24606323242188,207.43980407714844ZM129.8329620361328,209.1116485595703L129.8329620361328,209.54660034179688L129.62979125976562,209.53302001953125C129.51467895507812,209.5261993408203,129.440185546875,209.48544311523438,129.4537353515625,209.45144653320312C129.70428466796875,208.8466033935547,129.78553771972656,208.66990661621094,129.80587768554688,208.66990661621094C129.81939697265625,208.66990661621094,129.8329620361328,208.86700439453125,129.8329620361328,209.1116485595703ZM124.77426147460938,214.10679626464844C124.70655822753906,214.2223358154297,124.577880859375,214.3650360107422,124.48306274414062,214.4262237548828C124.33409118652344,214.5213623046875,124.32730102539062,214.5213623046875,124.40180969238281,214.43301391601562C124.44920349121094,214.37184143066406,124.48306274414062,214.2970733642578,124.47630310058594,214.2698974609375C124.44920349121094,214.11358642578125,124.49661254882812,214.03883361816406,124.61174011230469,214.03883361816406C124.68623352050781,214.03883361816406,124.76750183105469,214.00485229492188,124.78781127929688,213.9708709716797C124.89616394042969,213.80096435546875,124.88262939453125,213.9300994873047,124.77426147460938,214.10679626464844ZM129.81263732910156,217.6543731689453C129.79232788085938,217.708740234375,129.7720184326172,217.6883544921875,129.7720184326172,217.61358642578125C129.76522827148438,217.53883361816406,129.78553771972656,217.49807739257812,129.80587768554688,217.52525329589844C129.82620239257812,217.5456085205078,129.8329620361328,217.60679626464844,129.81263732910156,217.6543731689453ZM126.595947265625,223.12522888183594C126.32505798339844,223.13882446289062,125.89842224121094,223.13882446289062,125.64785766601562,223.12522888183594C125.39727783203125,223.1116485595703,125.62077331542969,223.1048583984375,126.1422119140625,223.1048583984375C126.66366577148438,223.1048583984375,126.8668212890625,223.1184539794922,126.595947265625,223.12522888183594Z" style="fill:#e60d0d;fill-opacity:1"></path></g></g><g id="shape-5aac0447-3c1f-803f-8006-73f878b11c39"><defs></defs><g class="fills" id="fills-5aac0447-3c1f-803f-8006-73f878b11c39"><path d="M134.29571533203125,204.9728240966797C134.22122192382812,205.06796264648438,134.2279815673828,205.10194396972656,134.35665893554688,205.20388793945312C134.53273010253906,205.3466033935547,134.559814453125,205.5640869140625,134.60723876953125,207.2427215576172C134.75621032714844,212.53689575195312,134.6817169189453,218.83689880371094,134.43115234375,222.1602020263672C134.34310913085938,223.3631134033203,134.34310913085938,223.3631134033203,134.47854614257812,223.46505737304688C134.63430786132812,223.58058166503906,142.835205078125,223.59417724609375,143.04515075683594,223.48544311523438C143.173828125,223.4106903076172,143.173828125,223.2407684326172,143.173828125,214.2427215576172C143.173828125,209.206787109375,143.1535186767578,205.0339813232422,143.1331787109375,204.9728240966797C143.09255981445312,204.877685546875,142.6455841064453,204.86407470703125,138.73814392089844,204.86407470703125C134.81715393066406,204.86407470703125,134.37698364257812,204.877685546875,134.29571533203125,204.9728240966797ZM135.38600158691406,205.62522888183594C135.48080444335938,205.8223419189453,136.04965209960938,206.72621154785156,136.6591339111328,207.64369201660156C137.76296997070312,209.31552124023438,138.32505798339844,210.2194366455078,138.6636505126953,210.89222717285156C138.9616241455078,211.49710083007812,139.02935791015625,211.4427032470703,139.69976806640625,210.04270935058594C140.49887084960938,208.38446044921875,141.63656616210938,206.06019592285156,141.8668212890625,205.63204956054688L142.05642700195312,205.2786407470703L142.41534423828125,205.27183532714844L142.7675018310547,205.27183532714844L142.7675018310547,206.46116638183594C142.7675018310547,207.11358642578125,142.7404022216797,207.65048217773438,142.71331787109375,207.65048217773438C142.57110595703125,207.65048217773438,141.86004638671875,209.28834533691406,141.24378967285156,211.04855346679688C141.06771850585938,211.55145263671875,140.75619506835938,212.3466033935547,140.55303955078125,212.81552124023438C140.34988403320312,213.28445434570312,140.146728515625,213.7397918701172,140.1128692626953,213.8349609375C140.04515075683594,213.9912567138672,140.1805877685547,214.3038787841797,141.33181762695312,216.6349639892578C142.0428924560547,218.0757293701172,142.65237426757812,219.2786407470703,142.69302368164062,219.3058319091797C142.79457092285156,219.36700439453125,142.79457092285156,223.1456298828125,142.69302368164062,223.1456298828125C142.65237426757812,223.1456298828125,142.63882446289062,223.0912628173828,142.66592407226562,223.01651000976562C142.69302368164062,222.9281463623047,142.48983764648438,222.5,142.00225830078125,221.6368865966797C141.17605590820312,220.18252563476562,139.91648864746094,217.8242645263672,139.32052612304688,216.6349639892578C139.0902862548828,216.1796112060547,138.8668212890625,215.8058319091797,138.8126220703125,215.8058319091797C138.6636505126953,215.8058319091797,138.46725463867188,216.1048583984375,137.715576171875,217.49807739257812C136.9571075439453,218.89805603027344,136.01580810546875,220.49514770507812,135.29119873046875,221.61651611328125C134.94583129882812,222.14659118652344,134.84423828125,222.25534057617188,134.84423828125,222.12620544433594C134.84423828125,222.03106689453125,134.8780975341797,221.31068420410156,134.91873168945312,220.5291290283203L134.98646545410156,219.10874938964844L136.52369689941406,216.65533447265625C137.4447021484375,215.1873779296875,138.06771850585938,214.12718200683594,138.08126831054688,213.99807739257812C138.10157775878906,213.84854125976562,138,213.58349609375,137.72235107421875,213.0261993408203C137.20089721679688,211.9796142578125,136.44920349121094,210.56600952148438,135.65689086914062,209.1456298828125L134.99322509765625,207.95631408691406L134.95936584472656,206.6106719970703L134.92550659179688,205.27183532714844L135.06773376464844,205.27183532714844C135.1760711669922,205.2786407470703,135.2641143798828,205.36700439453125,135.38600158691406,205.62522888183594ZM141.16929626464844,206.12135314941406C141.14219665527344,206.1757354736328,141.11512756347656,206.22329711914062,141.10157775878906,206.22329711914062C141.08802795410156,206.22329711914062,141.0745086669922,206.1757354736328,141.0745086669922,206.12135314941406C141.0745086669922,206.06698608398438,141.10157775878906,206.0194091796875,141.14219665527344,206.0194091796875C141.17605590820312,206.0194091796875,141.1896209716797,206.06698608398438,141.16929626464844,206.12135314941406ZM140.85101318359375,206.7126007080078C140.8306884765625,206.76699829101562,140.81039428710938,206.74661254882812,140.81039428710938,206.67184448242188C140.80361938476562,206.5970916748047,140.82391357421875,206.55630493164062,140.84425354003906,206.58349609375C140.86456298828125,206.6038818359375,140.87132263183594,206.6650390625,140.85101318359375,206.7126007080078ZM140.68849182128906,207.07281494140625C140.62753295898438,207.20193481445312,140.559814453125,207.2970733642578,140.5462646484375,207.27670288085938C140.49887084960938,207.22911071777344,140.67494201660156,206.8349609375,140.74266052246094,206.8349609375C140.77651977539062,206.8349609375,140.74942016601562,206.94369506835938,140.68849182128906,207.07281494140625ZM142.7471923828125,212.35340881347656C142.7404022216797,212.9990234375,142.7268829345703,212.47572326660156,142.7268829345703,211.18447875976562C142.7268829345703,209.89320373535156,142.7404022216797,209.3699188232422,142.7471923828125,210.0087432861328C142.76071166992188,210.6543731689453,142.76071166992188,211.7145538330078,142.7471923828125,212.35340881347656ZM135.21670532226562,209.1456298828125C135.34536743164062,209.3903045654297,135.34536743164062,209.38348388671875,135.18284606933594,209.3970947265625C135.07449340820312,209.40386962890625,135.0474090576172,209.3699188232422,135.0474090576172,209.17283630371094C135.0474090576172,208.88735961914062,135.0812530517578,208.88058471679688,135.21670532226562,209.1456298828125ZM136.29345703125,211.1300811767578C136.84197998046875,212.1766815185547,136.90293884277344,212.41455078125,136.4356689453125,211.64659118652344C136.29345703125,211.4087371826172,136.14447021484375,211.19805908203125,136.11061096191406,211.1776580810547C136.07675170898438,211.1572723388672,136.04965209960938,211.1096954345703,136.04965209960938,211.0757293701172C136.04965209960938,211.04176330566406,136.02256774902344,211.0213623046875,135.98194885253906,211.03494262695312C135.94808959960938,211.04176330566406,135.93453979492188,211.02816772460938,135.95486450195312,210.9941864013672C135.9751739501953,210.960205078125,135.89390563964844,210.73593139648438,135.77200317382812,210.49807739257812C135.65011596679688,210.2602081298828,135.5485382080078,210.00192260742188,135.5349884033203,209.92718505859375C135.51467895507812,209.79806518554688,135.52822875976562,209.8048553466797,135.63656616210938,209.94757080078125C135.70428466796875,210.0291290283203,136.00225830078125,210.55921936035156,136.29345703125,211.1300811767578ZM142.7471923828125,214.66409301757812C142.733642578125,214.86117553710938,142.7268829345703,214.70484924316406,142.7268829345703,214.31068420410156C142.7268829345703,213.91650390625,142.733642578125,213.7602081298828,142.7471923828125,213.95050048828125C142.76071166992188,214.1475830078125,142.76071166992188,214.4738006591797,142.7471923828125,214.66409301757812ZM142.7471923828125,217.2805633544922C142.7404022216797,217.6883544921875,142.7268829345703,217.35533142089844,142.7268829345703,216.55340576171875C142.7268829345703,215.75146484375,142.7404022216797,215.41845703125,142.7471923828125,215.81942749023438C142.76071166992188,216.22718811035156,142.76071166992188,216.87960815429688,142.7471923828125,217.2805633544922ZM135.09481811523438,216.6349639892578C135.07449340820312,216.68252563476562,135.06094360351562,216.6485595703125,135.06094360351562,216.55340576171875C135.06094360351562,216.45823669433594,135.07449340820312,216.4242706298828,135.09481811523438,216.46505737304688C135.1083526611328,216.5126190185547,135.1083526611328,216.59417724609375,135.09481811523438,216.6349639892578ZM136.1376953125,216.53302001953125C136.1038360595703,216.60098266601562,136.02256774902344,216.71652221679688,135.9616241455078,216.791259765625C135.853271484375,216.92037963867188,135.84649658203125,216.92037963867188,135.94131469726562,216.7572784423828C136.1173858642578,216.4446563720703,136.1376953125,216.41748046875,136.17156982421875,216.41748046875C136.19186401367188,216.41748046875,136.17156982421875,216.47183227539062,136.1376953125,216.53302001953125ZM138.907470703125,216.68931579589844C139.06321716308594,216.99514770507812,139.0902862548828,217.1582489013672,138.93453979492188,216.87281799316406C138.8668212890625,216.75048828125,138.79232788085938,216.6961212158203,138.73138427734375,216.71652221679688C138.6298065185547,216.7572784423828,138.60948181152344,216.6961212158203,138.67721557617188,216.5261993408203C138.73814392089844,216.3699188232422,138.75169372558594,216.38348388671875,138.907470703125,216.68931579589844ZM138.4063262939453,217.4708709716797C138.34536743164062,217.53204345703125,138.2979736328125,217.64077758789062,138.2979736328125,217.71554565429688C138.2979736328125,217.7970733642578,138.25057983398438,217.84466552734375,138.1625213623047,217.84466552734375C137.99322509765625,217.84466552734375,137.99322509765625,217.84466552734375,138.20315551757812,217.41650390625C138.37246704101562,217.0902862548828,138.3927764892578,217.0767059326172,138.4537353515625,217.2126007080078C138.50112915039062,217.32815551757812,138.49435424804688,217.3893280029297,138.4063262939453,217.4708709716797ZM135.18284606933594,218.03494262695312C135.18284606933594,218.06893920898438,135.13543701171875,218.15048217773438,135.0812530517578,218.22525024414062C134.98646545410156,218.3543701171875,134.98646545410156,218.3543701171875,134.9796905517578,218.21165466308594C134.9796905517578,218.1368865966797,135,218.04855346679688,135.02708435058594,218.02816772460938C135.08804321289062,217.960205078125,135.18284606933594,217.96697998046875,135.18284606933594,218.03494262695312ZM140.9864501953125,220.63107299804688C141.27764892578125,221.16114807128906,141.25732421875,221.1475830078125,140.84425354003906,220.54949951171875C140.5191650390625,220.06698608398438,139.7200927734375,218.51748657226562,139.7200927734375,218.37477111816406C139.7200927734375,218.32716369628906,139.95034790039062,218.7145538330078,140.23475646972656,219.2378692626953C140.5124053955078,219.7611541748047,140.8577880859375,220.38641357421875,140.9864501953125,220.63107299804688ZM139.17156982421875,219.666015625C139.17832946777344,219.71359252929688,139.1512451171875,219.73397827148438,139.11061096191406,219.71359252929688C139.07675170898438,219.6931915283203,139.04287719726562,219.5912628173828,139.04965209960938,219.4893341064453C139.04965209960938,219.3262176513672,139.0564422607422,219.31942749023438,139.11061096191406,219.44175720214844C139.14447021484375,219.51651000976562,139.17156982421875,219.6184539794922,139.17156982421875,219.666015625ZM141.30474853515625,221.21554565429688C141.32505798339844,221.2698974609375,141.3182830810547,221.2970733642578,141.27764892578125,221.27670288085938C141.23703002929688,221.2563018798828,141.20993041992188,221.208740234375,141.20993041992188,221.16796875C141.20993041992188,221.07281494140625,141.25732421875,221.0931854248047,141.30474853515625,221.21554565429688ZM137.1128692626953,222.2621307373047C137.1331787109375,222.29611206054688,137.1060791015625,222.33009338378906,137.04515075683594,222.33009338378906C136.98419189453125,222.33009338378906,136.9571075439453,222.29611206054688,136.97743225097656,222.2621307373047C136.99774169921875,222.2213592529297,137.03160095214844,222.1941680908203,137.04515075683594,222.1941680908203C137.05870056152344,222.1941680908203,137.09255981445312,222.2213592529297,137.1128692626953,222.2621307373047ZM136.84197998046875,223.07766723632812C136.93679809570312,223.1184539794922,136.86907958984375,223.13882446289062,136.60496520996094,223.13204956054688C136.320556640625,223.13204956054688,136.2731475830078,223.1184539794922,136.4018096923828,223.07766723632812C136.61851501464844,223.0097198486328,136.679443359375,223.0097198486328,136.84197998046875,223.07766723632812Z" style="fill:#e60d0d;fill-opacity:1"></path></g></g></g></g></svg>